<mxfile host="Electron" modified="2023-08-19T14:35:05.570Z" agent="Mozilla/5.0 (Windows NT 10.0; Win64; x64) AppleWebKit/537.36 (KHTML, like Gecko) draw.io/21.2.8 Chrome/112.0.5615.165 Electron/24.2.0 Safari/537.36" etag="CdknUP91U97oPlMyRc-Y" version="21.2.8" type="device">
  <diagram name="Page-1" id="ha71a-5xJCtEE2eSQwnj">
    <mxGraphModel dx="1050" dy="669" grid="1" gridSize="10" guides="1" tooltips="1" connect="1" arrows="1" fold="1" page="1" pageScale="1" pageWidth="827" pageHeight="1169" math="0" shadow="0">
      <root>
        <mxCell id="0" />
        <mxCell id="1" parent="0" />
        <mxCell id="0VVukIMSLV9ti82Cb38F-14" style="rounded=0;orthogonalLoop=1;jettySize=auto;html=1;exitX=0.5;exitY=1;exitDx=0;exitDy=0;entryX=0;entryY=0;entryDx=0;entryDy=0;" edge="1" parent="1" source="0VVukIMSLV9ti82Cb38F-1" target="0VVukIMSLV9ti82Cb38F-6">
          <mxGeometry relative="1" as="geometry" />
        </mxCell>
        <mxCell id="0VVukIMSLV9ti82Cb38F-1" value="目标文件&lt;br&gt;Calculator.o" style="rounded=0;whiteSpace=wrap;html=1;fontSize=14;fillColor=none;" vertex="1" parent="1">
          <mxGeometry x="120" y="120" width="120" height="60" as="geometry" />
        </mxCell>
        <mxCell id="0VVukIMSLV9ti82Cb38F-8" style="edgeStyle=orthogonalEdgeStyle;rounded=0;orthogonalLoop=1;jettySize=auto;html=1;exitX=0.5;exitY=1;exitDx=0;exitDy=0;entryX=0.5;entryY=0;entryDx=0;entryDy=0;" edge="1" parent="1" source="0VVukIMSLV9ti82Cb38F-2" target="0VVukIMSLV9ti82Cb38F-6">
          <mxGeometry relative="1" as="geometry" />
        </mxCell>
        <mxCell id="0VVukIMSLV9ti82Cb38F-2" value="目标文件&lt;br&gt;Fraction.o" style="rounded=0;whiteSpace=wrap;html=1;fontSize=14;fillColor=none;" vertex="1" parent="1">
          <mxGeometry x="280" y="120" width="120" height="60" as="geometry" />
        </mxCell>
        <mxCell id="0VVukIMSLV9ti82Cb38F-15" style="rounded=0;orthogonalLoop=1;jettySize=auto;html=1;exitX=0.5;exitY=1;exitDx=0;exitDy=0;entryX=1;entryY=0;entryDx=0;entryDy=0;" edge="1" parent="1" source="0VVukIMSLV9ti82Cb38F-3" target="0VVukIMSLV9ti82Cb38F-6">
          <mxGeometry relative="1" as="geometry" />
        </mxCell>
        <mxCell id="0VVukIMSLV9ti82Cb38F-3" value="目标文件&lt;br&gt;Math.o" style="rounded=0;whiteSpace=wrap;html=1;fontSize=14;fillColor=none;" vertex="1" parent="1">
          <mxGeometry x="440" y="120" width="120" height="60" as="geometry" />
        </mxCell>
        <mxCell id="0VVukIMSLV9ti82Cb38F-9" style="edgeStyle=orthogonalEdgeStyle;rounded=0;orthogonalLoop=1;jettySize=auto;html=1;exitX=1;exitY=0.5;exitDx=0;exitDy=0;entryX=0;entryY=0.5;entryDx=0;entryDy=0;" edge="1" parent="1" source="0VVukIMSLV9ti82Cb38F-4" target="0VVukIMSLV9ti82Cb38F-6">
          <mxGeometry relative="1" as="geometry" />
        </mxCell>
        <mxCell id="0VVukIMSLV9ti82Cb38F-4" value="C++ 标准库" style="rounded=0;whiteSpace=wrap;html=1;fontSize=14;fillColor=none;" vertex="1" parent="1">
          <mxGeometry x="120" y="240" width="120" height="60" as="geometry" />
        </mxCell>
        <mxCell id="0VVukIMSLV9ti82Cb38F-10" style="edgeStyle=orthogonalEdgeStyle;rounded=0;orthogonalLoop=1;jettySize=auto;html=1;exitX=0;exitY=0.5;exitDx=0;exitDy=0;entryX=1;entryY=0.5;entryDx=0;entryDy=0;" edge="1" parent="1" source="0VVukIMSLV9ti82Cb38F-5" target="0VVukIMSLV9ti82Cb38F-6">
          <mxGeometry relative="1" as="geometry" />
        </mxCell>
        <mxCell id="0VVukIMSLV9ti82Cb38F-5" value="其他库" style="rounded=0;whiteSpace=wrap;html=1;fontSize=14;fillColor=none;" vertex="1" parent="1">
          <mxGeometry x="440" y="240" width="120" height="60" as="geometry" />
        </mxCell>
        <mxCell id="0VVukIMSLV9ti82Cb38F-11" style="edgeStyle=orthogonalEdgeStyle;rounded=0;orthogonalLoop=1;jettySize=auto;html=1;exitX=0.5;exitY=1;exitDx=0;exitDy=0;entryX=0.5;entryY=0;entryDx=0;entryDy=0;" edge="1" parent="1" source="0VVukIMSLV9ti82Cb38F-6" target="0VVukIMSLV9ti82Cb38F-7">
          <mxGeometry relative="1" as="geometry" />
        </mxCell>
        <mxCell id="0VVukIMSLV9ti82Cb38F-6" value="&lt;font style=&quot;font-size: 14px;&quot;&gt;链接器&lt;/font&gt;" style="ellipse;whiteSpace=wrap;html=1;aspect=fixed;fillColor=none;" vertex="1" parent="1">
          <mxGeometry x="300" y="230" width="80" height="80" as="geometry" />
        </mxCell>
        <mxCell id="0VVukIMSLV9ti82Cb38F-7" value="可执行文件&lt;br&gt;Calculator.exe" style="rounded=0;whiteSpace=wrap;html=1;fontSize=14;fillColor=none;" vertex="1" parent="1">
          <mxGeometry x="280" y="360" width="120" height="60" as="geometry" />
        </mxCell>
      </root>
    </mxGraphModel>
  </diagram>
</mxfile>
